<?xml version="1.0" encoding="UTF-8" standalone="no"?>
<!-- Created with Inkscape (http://www.inkscape.org/) -->

<svg
   xmlns:dc="http://purl.org/dc/elements/1.1/"
   xmlns:cc="http://creativecommons.org/ns#"
   xmlns:rdf="http://www.w3.org/1999/02/22-rdf-syntax-ns#"
   xmlns:svg="http://www.w3.org/2000/svg"
   xmlns="http://www.w3.org/2000/svg"
   xmlns:sodipodi="http://sodipodi.sourceforge.net/DTD/sodipodi-0.dtd"
   xmlns:inkscape="http://www.inkscape.org/namespaces/inkscape"
   width="210mm"
   height="297mm"
   viewBox="0 0 744.09448819 1052.3622047"
   id="svg2"
   version="1.1"
   inkscape:version="0.91 r13725"
   sodipodi:docname="ship_inkscape.svg">
  <defs
     id="defs4" />
  <sodipodi:namedview
     id="base"
     pagecolor="#ffffff"
     bordercolor="#666666"
     borderopacity="1.0"
     inkscape:pageopacity="0.0"
     inkscape:pageshadow="2"
     inkscape:zoom="0.98994949"
     inkscape:cx="374.83269"
     inkscape:cy="446.98683"
     inkscape:document-units="px"
     inkscape:current-layer="layer1"
     showgrid="false"
     inkscape:window-width="1600"
     inkscape:window-height="842"
     inkscape:window-x="0"
     inkscape:window-y="0"
     inkscape:window-maximized="1" />
  <metadata
     id="metadata7">
    <rdf:RDF>
      <cc:Work
         rdf:about="">
        <dc:format>image/svg+xml</dc:format>
        <dc:type
           rdf:resource="http://purl.org/dc/dcmitype/StillImage" />
        <dc:title></dc:title>
      </cc:Work>
    </rdf:RDF>
  </metadata>
  <g
     inkscape:label="Layer 1"
     inkscape:groupmode="layer"
     id="layer1">
    <path
       style="fill:#ffd42a;fill-rule:evenodd;stroke:none;stroke-width:0.98434889px;stroke-linecap:butt;stroke-linejoin:miter;stroke-opacity:1"
       d="M 351.39453 522.92969 L 352.08594 614.83008 L 322.13086 615.00781 L 321.78516 588.30469 L 292.59375 588.48242 L 293.11133 661.57422 L 322.05469 661.03906 L 321.92773 648.68359 L 331.39258 644.76953 C 339.2884 650.37655 349.19238 675.57936 369.18359 678.85352 L 369.18359 679.01953 C 369.35837 678.998 369.52594 678.9604 369.69922 678.93555 C 369.87313 678.96051 370.04137 678.99792 370.2168 679.01953 L 370.2168 678.85352 C 390.20801 675.57936 400.11199 650.37655 408.00781 644.76953 L 417.47266 648.68359 L 417.3457 661.03906 L 446.28906 661.57422 L 446.80859 588.48242 L 417.61523 588.30469 L 417.26953 615.00781 L 387.31445 614.83008 L 388.00586 522.92969 L 369.95508 522.92969 L 369.44531 522.92969 L 351.39453 522.92969 z "
       id="path4233" />
  </g>
</svg>
